<svg width="80" height="80" viewBox="0 0 80 80" fill="none" xmlns="http://www.w3.org/2000/svg">
<g clip-path="url(#clip0)">
<path d="M24.5998 35.6412C28.2633 43.7259 36.1066 47.2451 39.9996 47.2451C42.5593 47.2451 46.8269 45.7224 50.4912 42.3822C49.1514 42.4756 47.7194 42.523 46.1891 42.523C45.83 42.523 45.4533 42.5198 45.0508 42.5135C44.2793 43.1075 43.3238 43.4425 42.3322 43.4425H39.0717C36.6145 43.4425 34.6156 41.4436 34.6156 38.9864C34.6156 36.5293 36.6145 34.5304 39.0717 34.5304H42.3322C43.5101 34.5304 44.6117 34.9895 45.4288 35.7814C45.7003 35.7844 45.9678 35.7857 46.2304 35.7857C50.4395 35.7857 53.2133 35.3997 55.0279 34.9341C54.7925 34.3613 54.6643 33.7346 54.6643 33.0804V21.7823C54.6643 20.607 55.1005 19.4804 55.8548 18.61C55.4522 15.4767 54.7216 13.0845 53.6313 11.32C51.3846 7.68362 47.0529 5.99011 39.9996 5.99011C34.1483 5.99011 30.1077 7.20476 27.6471 9.7034C25.7397 11.6404 24.6344 14.4042 24.1177 18.5783C24.8889 19.4519 25.3349 20.59 25.3349 21.7823V33.0804C25.3351 34.0205 25.065 34.8978 24.5998 35.6412Z" fill="#EC4040"/>
<path d="M16.5835 35.7475H20.4948C21.9673 35.7475 23.1619 34.5533 23.1619 33.0802V21.7821C23.1619 20.7979 22.6274 19.9404 21.8345 19.4783C22.7079 10.2269 26.2779 3.8161 40.0003 3.8161C47.8805 3.8161 52.7997 5.83761 55.4812 10.1773C57.0414 12.7027 57.792 15.9645 58.1426 19.4922C57.3623 19.9576 56.8384 20.8075 56.8384 21.7819V33.08C56.8384 34.3501 57.727 35.4106 58.9158 35.6795C57.1916 36.8072 53.622 37.959 46.2309 37.959C45.6323 37.959 45.0082 37.9514 44.3583 37.9358C43.9779 37.2043 43.2145 36.7037 42.3328 36.7037H39.0726C37.8123 36.7037 36.7902 37.7256 36.7902 38.9861C36.7902 40.2466 37.8123 41.2684 39.0726 41.2684H42.3328C43.0945 41.2684 43.7675 40.8939 44.1818 40.3207C44.8682 40.3381 45.5403 40.349 46.1898 40.349C54.5211 40.3488 59.8172 38.9268 61.9622 36.1053C62.0535 35.9853 62.1367 35.8658 62.2126 35.7475H63.4175C64.8901 35.7475 66.0846 34.5533 66.0846 33.0802V21.7821C66.0846 20.3093 64.8903 19.115 63.4175 19.115H61.9463C61.5325 14.8529 60.6149 11.2246 58.7278 8.17105C55.3307 2.67275 49.2045 0 40.0001 0C30.795 0 24.6694 2.67275 21.2722 8.17126C19.3852 11.2248 18.4681 14.8527 18.054 19.1153H16.5833C15.1102 19.1153 13.916 20.3093 13.916 21.7824V33.0804C13.916 34.5533 15.1104 35.7475 16.5835 35.7475Z" fill="#EC4040"/>
<path d="M72.2457 68.9704C71.3588 63.4565 69.5332 56.3538 65.8716 53.8302C63.3749 52.1084 54.6585 47.4513 50.9365 45.4628L50.8583 45.4211C50.4322 45.1935 49.9125 45.2392 49.5328 45.5372C47.5802 47.0698 45.4426 48.1023 43.1796 48.606C42.7796 48.6949 42.4512 48.9794 42.3058 49.3624L39.9997 55.4402L37.6937 49.3624C37.5482 48.9792 37.2198 48.6949 36.8199 48.606C34.5568 48.1023 32.4188 47.0698 30.466 45.5372C30.0865 45.2389 29.5665 45.1933 29.1407 45.4211C25.4602 47.3874 16.631 52.1423 14.1382 53.8228C9.92154 56.6635 8.08001 66.9396 7.75374 68.9706C7.72135 69.1721 7.74004 69.3782 7.80808 69.5704C7.95893 69.9964 11.8268 80.0003 39.9995 80.0003C68.1718 80.0003 72.0401 69.9964 72.1911 69.5706C72.2594 69.378 72.2781 69.1717 72.2457 68.9704ZM59.128 62.6385H47.9697V60.2886H59.128V62.6385Z" fill="#EC4040"/>
</g>
<defs>
<clipPath id="clip0">
<rect width="80" height="80" fill="white"/>
</clipPath>
</defs>
</svg>
