<svg width="80" height="80" viewBox="0 0 80 80" fill="none" xmlns="http://www.w3.org/2000/svg">
<path d="M30.625 80C37.5378 80 42.89 79.3384 47.1832 77.9858C47.0923 77.4976 47.0312 76.9983 47.0312 76.4844C47.0312 74.1882 47.9858 72.1155 49.5117 70.625C47.9858 69.1345 47.0312 67.0618 47.0312 64.7656C47.0312 62.4695 47.9858 60.3967 49.5117 58.9062C47.9858 57.4158 47.0312 55.343 47.0312 53.0469C47.0312 50.7507 47.9858 48.678 49.5117 47.1875C47.9858 45.697 47.0312 43.6243 47.0312 41.3281C47.0312 38.6157 48.3704 36.225 50.4059 34.7308C49.0118 33.4546 47.5226 32.3108 45.9601 31.3043C46.5948 30.5048 47.0312 29.5374 47.0312 28.4375C47.0312 25.8484 44.9329 23.75 42.3438 23.75H18.9062C16.3171 23.75 14.2188 25.8484 14.2188 28.4375C14.2188 29.5349 14.6539 30.4993 15.285 31.2976C6.18591 37.1594 0 47.774 0 58.9062C0 77.8143 17.5446 80 30.625 80ZM30.6 57.2491C26.7224 57.2491 23.5687 54.0955 23.5687 50.2179C23.5687 47.157 25.5463 44.5746 28.2812 43.6108V40.1562C28.2812 38.8611 29.3298 37.8125 30.625 37.8125C31.9202 37.8125 32.9688 38.8611 32.9688 40.1562V43.6267C35.6781 44.6039 37.6312 47.1759 37.6312 50.2179C37.6312 51.5137 36.5826 52.5616 35.2875 52.5616C33.9917 52.5616 32.9437 51.5137 32.9437 50.2179C32.9437 48.9246 31.8927 47.8741 30.6 47.8741C29.3066 47.8741 28.2562 48.9246 28.2562 50.2179C28.2562 51.5112 29.3066 52.5616 30.6 52.5616C34.4769 52.5616 37.6312 55.7159 37.6312 59.5929C37.6312 62.6349 35.6781 65.2069 32.9688 66.1847V68.2812C32.9688 69.5764 31.9202 70.625 30.625 70.625C29.3298 70.625 28.2812 69.5764 28.2812 68.2812V66.2C25.5463 65.2368 23.5687 62.6538 23.5687 59.5929C23.5687 58.2977 24.6167 57.2491 25.9125 57.2491C27.2076 57.2491 28.2562 58.2977 28.2562 59.5929C28.2562 60.8862 29.3066 61.9366 30.6 61.9366C31.8927 61.9366 32.9437 60.8862 32.9437 59.5929C32.9437 58.2996 31.8927 57.2491 30.6 57.2491Z" fill="#EC4040"/>
<path d="M76.4844 72.9688H55.2344C53.2928 72.9688 51.7188 74.5428 51.7188 76.4844C51.7188 78.4259 53.2928 80 55.2344 80H76.4844C78.4259 80 80 78.4259 80 76.4844C80 74.5428 78.4259 72.9688 76.4844 72.9688Z" fill="#EC4040"/>
<path d="M76.4844 61.25H55.2344C53.2928 61.25 51.7188 62.8241 51.7188 64.7656C51.7188 66.7072 53.2928 68.2812 55.2344 68.2812H76.4844C78.4259 68.2812 80 66.7072 80 64.7656C80 62.8241 78.4259 61.25 76.4844 61.25Z" fill="#EC4040"/>
<path d="M76.4844 49.5312H55.2344C53.2928 49.5312 51.7188 51.1053 51.7188 53.0469C51.7188 54.9884 53.2928 56.5625 55.2344 56.5625H76.4844C78.4259 56.5625 80 54.9884 80 53.0469C80 51.1053 78.4259 49.5312 76.4844 49.5312Z" fill="#EC4040"/>
<path d="M76.4844 37.8125H55.2344C53.2928 37.8125 51.7188 39.3866 51.7188 41.3281C51.7188 43.2697 53.2928 44.8438 55.2344 44.8438H76.4844C78.4259 44.8438 80 43.2697 80 41.3281C80 39.3866 78.4259 37.8125 76.4844 37.8125Z" fill="#EC4040"/>
<path d="M37.2248 4.6875C36.2537 1.96533 33.6768 0 30.625 0C27.5696 0 24.9628 1.95923 23.9942 4.6875H16.5625C15.8094 4.6875 15.102 5.04883 14.6607 5.6604C14.2212 6.27136 14.0998 7.05872 14.3402 7.77283L17.9993 19.0625H43.2514L46.9098 7.77283C47.1503 7.05872 47.0288 6.27136 46.5894 5.6604C46.1481 5.04883 45.4407 4.6875 44.6875 4.6875H37.2248Z" fill="#EC4040"/>
</svg>
