<svg width="80" height="80" viewBox="0 0 80 80" fill="none" xmlns="http://www.w3.org/2000/svg">
<g clip-path="url(#clip0)">
<path d="M14.0625 28.4375C8.89203 28.4375 4.6875 24.233 4.6875 19.0625C4.6875 13.892 8.89203 9.6875 14.0625 9.6875C19.233 9.6875 23.4375 13.892 23.4375 19.0625C23.4375 24.233 19.233 28.4375 14.0625 28.4375Z" fill="#EC4040"/>
<path d="M65.9375 28.4375C60.767 28.4375 56.5625 24.233 56.5625 19.0625C56.5625 13.892 60.767 9.6875 65.9375 9.6875C71.108 9.6875 75.3125 13.892 75.3125 19.0625C75.3125 24.233 71.108 28.4375 65.9375 28.4375Z" fill="#EC4040"/>
<path d="M40 23.4375C33.5386 23.4375 28.2812 18.1802 28.2812 11.7188C28.2812 5.25734 33.5386 0 40 0C46.4614 0 51.7188 5.25734 51.7188 11.7188C51.7188 18.1802 46.4614 23.4375 40 23.4375Z" fill="#EC4040"/>
<path d="M42.3438 23.6743V39.8437C42.3438 41.1392 41.2955 42.1874 40 42.1874C38.7045 42.1874 37.6562 41.1392 37.6562 39.8437V23.6743C29.7266 24.8238 23.5938 31.6007 23.5938 39.8437V53.9062C23.5938 55.2017 24.642 56.2499 25.9375 56.2499H31.1881L32.978 77.8531C33.0786 79.066 34.0948 79.9999 35.3125 79.9999H44.6875C45.9052 79.9999 46.9214 79.066 47.022 77.8531L48.8119 56.2499H54.0625C55.358 56.2499 56.4062 55.2017 56.4062 53.9062V39.8437C56.4062 31.6007 50.2734 24.8238 42.3438 23.6743Z" fill="#EC4040"/>
<path d="M18.75 54.2188V40.1562C18.75 36.6431 19.6953 33.3784 21.2205 30.4622C19.1159 29.2059 16.6866 28.4375 14.0625 28.4375C6.30797 28.4375 0 34.7455 0 42.5V54.2188C0 55.5142 1.04828 56.5625 2.34375 56.5625H4.90953L7.04266 77.8897C7.16172 79.0867 8.17109 80 9.375 80H18.75C19.9539 80 20.9633 79.0867 21.0823 77.8897L22.8147 60.5705C20.4217 59.4475 18.75 57.0323 18.75 54.2188Z" fill="#EC4040"/>
<path d="M80.0002 42.5C80.0002 34.7455 73.6923 28.4375 65.9377 28.4375C63.3137 28.4375 60.8843 29.2059 58.7798 30.4622C60.3049 33.3784 61.2502 36.6431 61.2502 40.1562V54.2188C61.2502 57.0323 59.5785 59.4475 57.1855 60.5705L58.9179 77.8897C59.037 79.0867 60.0463 80 61.2502 80H70.6252C71.8291 80 72.8385 79.0867 72.9576 77.8897L75.0907 56.5625H77.6565C78.952 56.5625 80.0002 55.5142 80.0002 54.2188V42.5Z" fill="#EC4040"/>
</g>
<defs>
<clipPath id="clip0">
<rect width="80" height="80" fill="white"/>
</clipPath>
</defs>
</svg>
