<svg width="80" height="80" viewBox="0 0 80 80" fill="none" xmlns="http://www.w3.org/2000/svg">
<path d="M32.5 48.9487C30.9675 49.6212 29.2775 50 27.5 50C25.7225 50 24.0325 49.6212 22.5 48.9487V50.7975L27.5 56.7975L32.5 50.7975V48.9487Z" fill="#EC4040"/>
<path d="M25.6777 61.0587L27.0227 63.75H27.9777L29.3227 61.0587L27.5002 60.1475L25.6777 61.0587Z" fill="#EC4040"/>
<path d="M17.9834 52.5L20.7297 60.7375L25.5284 58.3375L20.6634 52.5H17.9834Z" fill="#EC4040"/>
<path d="M37.0162 52.5H34.3362L29.4712 58.3375L34.2699 60.7375L37.0162 52.5Z" fill="#EC4040"/>
<path d="M40 37.5C41.3788 37.5 42.5 36.3788 42.5 35C42.5 33.6212 41.3788 32.5 40 32.5V37.5Z" fill="#EC4040"/>
<path d="M16.25 28.75H23.75C25.7063 28.75 27.5763 27.815 28.75 26.25L30.25 24.2488C30.7213 23.6213 31.7787 23.6213 32.25 24.2488L33.75 26.2488C34.9237 27.815 36.7938 28.75 38.75 28.75C39.4412 28.75 40 29.3088 40 30C40.4338 30 40.8475 30.0725 41.25 30.1775V27.5C41.25 19.9187 35.0812 13.75 27.5 13.75C19.9187 13.75 13.75 19.9187 13.75 27.5V30.1775C14.1525 30.0725 14.5662 30 15 30C15 29.3088 15.5588 28.75 16.25 28.75Z" fill="#EC4040"/>
<path d="M41.2498 52.5H39.6498L36.1848 62.895C36.071 63.2375 35.8123 63.515 35.4785 63.6538C35.3248 63.7188 35.1623 63.75 34.9998 63.75C34.8085 63.75 34.616 63.7063 34.441 63.6188L31.5598 62.1775L30.061 65.1762L32.2748 76.25H43.7498V68.75H46.2498V76.25H51.2498V62.5C51.2498 56.9863 46.7635 52.5 41.2498 52.5Z" fill="#EC4040"/>
<path d="M37.5 31.1586C35.23 30.8274 33.1425 29.6049 31.75 27.7486L31.25 27.0824L30.75 27.7499C29.1063 29.9411 26.4888 31.2499 23.75 31.2499H17.5V37.4999C17.5 43.0136 21.9863 47.4999 27.5 47.4999C33.0138 47.4999 37.5 43.0136 37.5 37.4999V31.1586Z" fill="#EC4040"/>
<path d="M20.5588 63.6188C20.3838 63.7063 20.1912 63.75 20 63.75C19.8375 63.75 19.675 63.7188 19.5212 63.655C19.1862 63.5162 18.9275 63.2388 18.815 62.8963L15.35 52.5H13.75C8.23625 52.5 3.75 56.9863 3.75 62.5V76.25H8.75V68.75H11.25V76.25H22.725L24.94 65.1762L23.4412 62.1775L20.5588 63.6188Z" fill="#EC4040"/>
<path d="M27.2754 66.25L25.2754 76.25H29.7254L27.7254 66.25H27.2754Z" fill="#EC4040"/>
<path d="M15 37.5V32.5C13.6212 32.5 12.5 33.6212 12.5 35C12.5 36.3788 13.6212 37.5 15 37.5Z" fill="#EC4040"/>
<path d="M75 30V12.5H70V30H65V20H60V30H55V23.75H50V30H46.25V32.5H78.75V30H75Z" fill="#EC4040"/>
<path d="M58.0175 8.75H65C65.3325 8.75 65.65 8.61875 65.8837 8.38375L68.75 5.5175V8.75H71.25V2.5C71.25 1.80875 70.6912 1.25 70 1.25H63.75V3.75H66.9825L64.4825 6.25H57.5C57.1675 6.25 56.85 6.38125 56.6162 6.61625L49.1162 14.1163L50.8837 15.8837L58.0175 8.75Z" fill="#EC4040"/>
<path d="M55.3662 35.3662L40.7324 50H41.2499C42.1824 50 43.0874 50.1113 43.9624 50.305L56.7674 37.5H78.7499V35H56.2499C55.9174 35 55.5999 35.1312 55.3662 35.3662Z" fill="#EC4040"/>
</svg>
