<svg width="50" height="50" viewBox="0 0 50 50" fill="none" xmlns="http://www.w3.org/2000/svg">
<path d="M24.5758 1.53809C15.5916 1.53809 8.28223 8.84743 8.28223 17.8316C8.28223 29.1238 24.5918 48.4131 24.5918 48.4131C24.5918 48.4131 40.8693 28.5685 40.8693 17.8316C40.8693 8.84743 33.5602 1.53809 24.5758 1.53809ZM29.4918 22.6024C28.1363 23.9576 26.3562 24.6354 24.5758 24.6354C22.7956 24.6354 21.0149 23.9576 19.6599 22.6024C16.9491 19.8918 16.9491 15.4813 19.6599 12.7705C20.9726 11.4573 22.7187 10.734 24.5758 10.734C26.4328 10.734 28.1786 11.4575 29.4918 12.7705C32.2027 15.4813 32.2027 19.8918 29.4918 22.6024Z" fill="#EC4040"/>
</svg>
