<svg width="121" height="100" viewBox="0 0 121 100" fill="none" xmlns="http://www.w3.org/2000/svg">
<path d="M57.2829 37.9146C57.2103 38.0077 57.1316 38.0811 57.0462 38.1318C56.8753 38.234 56.69 38.262 56.4903 38.2559C56.4412 38.2559 56.389 38.2506 56.3399 38.2446L56.265 38.2348C56.2521 38.2325 56.2257 38.2302 56.2249 38.2287C56.2211 38.2257 56.2204 38.2257 56.2151 38.2226C56.172 38.203 56.0767 38.1621 55.9882 38.1068C55.8037 38.0001 55.6055 37.8646 55.4112 37.7276C55.0164 37.4528 54.6118 37.1659 54.1898 36.8949C53.7663 36.6254 53.3292 36.3643 52.8369 36.1531C53.0819 36.6315 53.3996 37.0402 53.7444 37.4225C53.8367 37.5209 53.9305 37.6178 54.0265 37.7124C54.0401 37.7632 54.0499 37.8131 54.0522 37.8593C54.1074 38.7578 54.0144 38.9599 54.6012 39.5716C55.1881 40.1832 55.8354 40.1885 56.147 40.7396C56.2196 40.5889 56.5652 40.1438 56.4389 38.9698C56.4873 38.9614 56.535 38.9531 56.5834 38.9418C56.7339 38.9054 56.8828 38.8464 57.0205 38.7601C57.1574 38.6738 57.2784 38.558 57.3646 38.4248C57.537 38.1522 57.5529 37.8366 57.4667 37.5845C57.4122 37.7087 57.3555 37.8214 57.2829 37.9146Z" fill="white"/>
<path d="M54.9245 42.8313C54.6969 42.9577 54.4594 43.0576 54.2137 43.1371L54.0261 43.1939L53.8106 43.256C53.6631 43.3021 53.5172 43.3529 53.3704 43.4051C53.08 43.5164 52.7904 43.6458 52.5098 43.8108C52.2315 43.9766 51.9578 44.178 51.7271 44.427C51.4957 44.6745 51.3127 44.9652 51.1932 45.2665C51.1902 45.2756 51.1879 45.2847 51.1841 45.293C51.0593 44.8418 50.8665 44.399 50.5723 43.9955C50.4702 43.86 50.3598 43.7291 50.235 43.6072L50.1367 43.5171L50.0823 43.4702L50.0384 43.4339L49.872 43.3037C49.6625 43.1394 49.4674 42.9623 49.2822 42.7707C48.9154 42.3839 48.5887 41.9434 48.3648 41.3635C48.2506 41.6625 48.2514 41.9964 48.3005 42.3166C48.3542 42.6383 48.4707 42.9517 48.6288 43.2401C48.7876 43.5285 48.991 43.7904 49.2194 44.0228C49.2481 44.0523 49.2761 44.0818 49.3056 44.1091L49.3865 44.1848L49.4243 44.2211L49.4523 44.2506L49.5113 44.3157C49.593 44.4058 49.6724 44.5004 49.745 44.6041C50.0414 45.0114 50.288 45.4981 50.5179 46.0121C50.75 46.5284 50.9625 47.0688 51.2227 47.6381C51.3853 47.0552 51.3883 46.4549 51.3029 45.8615C51.4072 45.7509 51.5086 45.6427 51.6144 45.5435C51.8201 45.346 52.0281 45.1794 52.2512 45.0417C52.6921 44.7639 53.2003 44.5701 53.7319 44.3664C53.865 44.3142 53.9989 44.2658 54.1343 44.2158L54.3415 44.1371C54.4201 44.1076 54.498 44.0758 54.5744 44.0394C54.8792 43.8971 55.1688 43.7071 55.4138 43.4694C55.9001 42.9993 56.217 42.3362 56.1466 41.6951C55.798 42.2166 55.3783 42.577 54.9245 42.8313Z" fill="white"/>
<path d="M110.302 29.3283L109.437 28.6099C111.088 27.7523 112.733 28.3639 112.733 28.3639C110.789 24.4647 108.145 22.6661 108.117 22.6465L107.456 22.2089C107.456 22.2089 107.998 21.2938 109.484 21.2128C107.052 17.5142 103.855 16.4075 102.137 16.0752C102.137 16.0752 102.137 16.0744 102.136 16.0744C102.082 16.0631 102.01 16.0502 101.925 16.0366C101.78 16.0139 101.597 15.9889 101.4 15.9639C101.247 15.945 101.086 15.9261 100.929 15.9071C100.418 15.8488 99.9534 15.8012 99.9534 15.8012C99.9534 15.8012 99.9534 15.8012 99.9284 15.7535C100.307 15.6535 100.626 15.5143 100.897 15.3606C100.95 15.3303 101.001 15.3 101.05 15.2698C101.054 15.266 101.059 15.2629 101.064 15.2599C101.673 14.8731 101.99 14.428 102.094 14.2607C102.095 14.2584 102.097 14.2562 102.099 14.2547C102.106 14.2441 102.112 14.2342 102.116 14.2251C102.119 14.2214 102.121 14.2168 102.123 14.2138C102.126 14.2085 102.128 14.2039 102.13 14.2009C102.133 14.1964 102.134 14.1918 102.134 14.1918C98.7547 14.4893 97.5349 14.0298 95.2162 13.1563C94.8177 13.0064 94.3654 12.8353 93.8663 12.6567C90.4171 11.4168 87.9502 12.1775 87.9282 12.1858L86.9277 12.5136C86.8566 11.3221 87.6409 10.5455 87.6409 10.5455C82.2488 9.63939 79.2125 10.9565 79.1815 10.9702L78.3224 11.3607C77.9783 9.83848 78.9894 8.9021 78.9894 8.9021C75.1007 10.3653 72.8078 12.2873 71.5721 13.6324C71.5501 13.6589 71.5206 13.6922 71.4843 13.7293C70.682 14.6218 70.3583 15.238 70.35 15.2539L69.5627 16.3378C69.5627 16.3378 69.658 16.1115 69.7261 15.5377C69.7548 14.8481 69.2768 14.5817 69.2837 14.4961C68.9683 15.2569 68.4472 16.1304 67.5904 16.9548C66.4696 18.0327 65.966 19.3809 66.1702 20.7525C66.2844 21.5208 66.6164 22.2279 67.1102 22.7979C67.1556 22.8501 67.2009 22.9001 67.2463 22.947C67.2607 22.9629 67.2758 22.9788 67.2932 22.9939C67.3416 23.0439 67.3908 23.0908 67.4399 23.1355C67.4475 23.1423 67.455 23.1506 67.4641 23.1582C68.0812 23.7062 68.6325 23.8061 68.8919 23.8198C68.9449 23.8183 68.997 23.8167 69.05 23.8167H69.0507C70.9323 23.8273 72.9908 25.0218 73.7788 25.5275C74.2545 24.9764 75.3216 23.7728 76.2404 22.9621C77.0912 22.2127 79.0143 21.3483 80.4376 21.8744C81.0191 22.0893 81.7542 22.6306 81.9478 23.9863C82.3199 26.5948 80.8913 29.3813 80.3574 30.3108C80.4134 30.3646 80.4739 30.4266 80.5374 30.4986L80.6009 30.4289C80.6259 30.4032 81.1061 29.8922 81.9788 29.9384C81.6748 29.8544 81.5311 29.8597 81.5357 29.8589L80.9216 29.927C82.1883 27.5032 84.2211 27.3836 84.2211 27.3836C82.9657 27.7273 82.3585 28.5569 82.0908 29.0815C82.3358 29.1421 82.6534 29.245 83.0467 29.4229C83.7848 29.7552 84.5629 29.3457 84.5697 29.3427L85.8841 28.4555C85.8841 28.4555 85.3214 31.0897 82.3146 30.8672C81.944 30.8392 81.6907 30.7907 81.5092 30.8528C82.1626 32.0556 81.7625 33.176 81.7429 33.2274L81.212 34.6627L80.9201 33.1608C80.6032 31.5303 79.5649 30.7537 79.5558 30.7468L79.2261 30.5099L79.4446 30.167C79.4658 30.1344 81.4994 26.9135 81.0986 24.1089C80.9897 23.3459 80.6766 22.8789 80.1404 22.6805C79.1058 22.2983 77.5117 22.9863 76.8061 23.6078C75.6551 24.6222 74.2008 26.3556 74.1864 26.373L73.9422 26.6652L74.6213 26.8492C74.7619 26.887 74.889 26.8976 74.9964 26.8719C75.1015 26.8469 75.196 26.7932 75.2784 26.7099C75.5061 26.373 75.7579 26.0513 76.0324 25.7508C76.3175 25.4367 76.6299 25.1467 76.9694 24.8886C77.3097 24.6328 77.6735 24.4034 78.0736 24.2459C78.2709 24.1657 78.4766 24.0999 78.6876 24.065C78.8964 24.0279 79.1126 24.0181 79.3168 24.0552C78.9107 24.1385 78.5644 24.3368 78.2437 24.5609C77.9276 24.7925 77.6357 25.0536 77.3657 25.3367C77.095 25.6183 76.8454 25.9211 76.6095 26.2322C76.3743 26.5456 76.1557 26.8704 75.9508 27.2034L75.9394 27.2224L75.9137 27.2534C75.7345 27.4661 75.4781 27.6342 75.1945 27.7008C75.1635 27.7083 75.1317 27.7152 75.1 27.7205C75.106 27.7356 75.1106 27.7523 75.1166 27.7681C75.1983 27.9665 75.2974 28.1542 75.4093 28.326C75.5227 28.4964 75.652 28.6493 75.7987 28.7711C75.8721 28.8325 75.9508 28.8839 76.0324 28.9293C76.074 28.9513 76.1156 28.9717 76.1587 28.9891L76.3198 29.0489C76.7388 29.2109 77.1955 29.3048 77.6712 29.466C78.1484 29.6288 78.587 29.9043 78.9175 30.2571C78.4751 30.0519 78.0342 29.9074 77.5782 29.8657C77.1237 29.818 76.6291 29.7983 76.133 29.6856L75.95 29.6417C75.8797 29.6227 75.8108 29.6 75.7428 29.5743C75.6067 29.5213 75.4781 29.4517 75.3586 29.3722C75.1196 29.2132 74.9207 29.0111 74.7559 28.7946C74.5887 28.5781 74.4579 28.3442 74.3475 28.1065C74.2908 27.9869 74.2424 27.865 74.2 27.7417C74.1547 27.6137 74.1191 27.5002 74.0836 27.3503L73.9217 26.6705L73.6087 26.448C73.5746 26.4245 70.2653 24.0968 68.1485 24.8061C67.4354 25.0453 66.9468 25.6077 66.6534 26.532C66.6511 26.5388 66.4333 27.2246 66.8478 27.7152C67.1404 28.0626 67.4755 28.3064 67.7984 28.5425C67.9421 28.647 68.0873 28.753 68.2249 28.8658L67.8498 27.9816L69.0326 28.7598C69.1097 28.8113 69.8055 29.3025 70.176 30.7256C70.3409 31.36 70.781 31.9307 71.2923 32.3698C71.2416 32.0753 71.2401 31.7551 71.3301 31.4319L71.4775 30.9149L71.9479 31.1723C72.0561 31.2313 74.4186 32.584 75.5378 38.2568C75.6006 37.8995 75.6097 37.4665 75.5023 36.9646L75.2966 36.004L76.1406 36.5059C76.2011 36.5422 77.6296 37.4271 78.3934 40.8751C79.121 44.1619 78.7648 45.1778 77.9034 47.6304L77.79 47.9544C77.0261 50.1367 77.8777 51.5886 78.398 52.2169C78.758 49.6439 81.0864 48.7961 81.1901 48.7605L81.8979 48.5115L81.752 49.2488C80.8407 53.8429 83.5163 55.8337 84.7959 56.5059C84.364 51.4803 85.6958 49.3003 88.4062 46.9355C91.0085 44.6645 90.9744 38.957 90.9729 38.8994L90.9684 38.4733L91.3941 38.4657C91.4531 38.4649 92.8575 38.449 94.5946 39.2514C95.9105 39.8585 97.634 41.0515 98.9748 43.3724C98.9173 42.2967 98.698 41.0856 98.0983 40.4853L97.6574 40.044L98.2269 39.7904C98.3101 39.7533 100.163 38.9585 102.184 40.4717C102.523 39.6534 103.028 37.8314 101.949 35.7701L101.627 35.1562L102.32 35.1426C102.389 35.1411 103.656 35.1312 104.782 36.0593C104.299 34.5067 102.811 32.0246 98.2594 30.2154L97.395 29.8718L98.2163 29.4373C98.3274 29.379 100.716 28.1459 104.473 28.6167C103.701 27.8885 102.386 26.9385 100.636 26.7394L100.098 26.6781L100.282 26.1671C100.308 26.0945 100.892 24.5495 103.425 23.7289C103.058 23.5609 102.612 23.408 102.159 23.3815L101.756 23.3573V22.953C101.756 22.8872 101.785 21.4679 104.117 21.2075C103.682 20.6473 102.921 19.8563 101.926 19.5777L101.466 19.449C101.466 19.449 101.473 19.3461 101.506 19.281C102.317 17.7118 104.452 17.9305 104.452 17.9305C103.501 18.2227 102.975 18.6466 102.702 18.9502C104.303 19.6685 105.23 21.3104 105.272 21.3869L105.626 22.0242H104.898C103.676 22.0242 103.059 22.3225 102.789 22.6086C103.869 22.8508 104.754 23.5071 104.797 23.5397L105.564 24.115L104.624 24.3027C102.703 24.6873 101.785 25.4813 101.377 25.9915C104.27 26.6032 105.891 28.8945 105.963 28.999L106.58 29.8892L105.521 29.6629C102.808 29.0845 100.696 29.4872 99.5548 29.837C106.128 32.8664 105.874 37.3673 105.858 37.5664L105.749 39.038L105.054 37.7367C104.491 36.6853 103.636 36.2697 103.036 36.1062C104.127 38.9592 102.754 41.2665 102.689 41.371L102.419 41.8145L102.035 41.4641C100.874 40.4051 99.7598 40.346 99.1207 40.4353C100.105 42.1249 99.8014 45.0582 99.7855 45.1975L99.6025 46.8848L98.9634 45.3125C96.9087 40.2627 93.0874 39.4694 91.8184 39.3468C91.773 40.8214 91.4342 45.4268 88.9643 47.5834C86.2932 49.9142 85.1263 51.9398 85.7162 57.1486L85.7911 57.8147L85.1551 57.6043C85.1014 57.5861 80.0822 55.8496 80.7688 49.9475C80.1517 50.3683 79.332 51.1776 79.2178 52.5499C79.2011 52.7513 79.2654 52.9133 79.2654 52.9133L79.605 53.6862L78.7806 53.5052C78.4055 53.4227 78.0055 53.0579 77.8928 52.9481L77.8754 52.9292C77.2795 52.2782 75.9992 50.4622 76.9755 47.6728L77.0882 47.3473C77.9155 44.9916 78.2248 44.1104 77.5502 41.0614C77.2265 39.6042 76.7879 38.6671 76.4181 38.0857C76.3077 39.2802 75.6944 39.969 75.6611 40.0069L75.0478 40.6791L74.92 39.7783C74.5751 37.3567 74.0057 35.6429 73.4309 34.4484L72.0508 33.8565C70.9572 33.3872 69.6943 32.3047 69.3411 30.9429C69.2753 30.6938 69.2005 30.4819 69.1211 30.304C69.0545 30.4531 68.9925 30.5462 68.9849 30.5568L68.3482 31.4993L68.2045 30.3706C68.1432 29.8809 67.8468 29.6447 67.2879 29.2367C66.9408 28.9838 66.5468 28.697 66.1868 28.27C66.0658 28.1262 65.9758 27.9756 65.9085 27.8249C64.1049 29.7946 63.6995 33.808 63.6995 35.2493C63.6995 35.6967 64.0375 36.6164 64.309 37.3552C64.6297 38.225 64.8097 38.7352 64.8097 39.1099C64.8097 40.1378 64.3007 41.1704 63.8061 42.1688C63.4651 42.8584 63.1444 43.5094 63.0642 44.0279C62.8775 45.2421 62.6816 49.2049 62.6445 50.005C63.5505 50.1337 63.8356 49.5947 64.0005 49.46C64.2841 49.2276 65.2475 50.1019 65.1765 50.4039C65.0948 50.7506 64.908 51.0807 64.6947 51.3691C66.3365 51.7354 68.0063 51.7952 68.1342 51.7998C69.1967 51.7983 69.8599 51.4516 70.1617 50.74C71.1886 48.3177 72.9265 48.2973 73.8726 48.5016C75.2074 48.7885 76.285 50.1564 76.3243 51.6143C76.3629 53.0624 75.3919 54.1971 73.7259 54.6513C73.1723 54.8019 72.587 54.8686 72.1763 54.8988C72.0969 55.9745 72.2081 58.5558 75.01 59.2037C78.944 60.1129 80.8989 62.274 80.818 65.6251C80.7318 69.2253 78.6869 71.5689 76.9036 72.933C84.7535 71.466 87.7891 66.7258 87.8209 66.6736L88.3767 65.7705C88.3767 65.7705 89.1617 66.8764 88.9424 68.2079C92.4378 65.0786 93.65 61.3021 93.6629 61.2589L94.1529 59.6768C94.1529 59.6768 95.3985 61.1408 94.8207 63.8879C98.7222 59.8434 99.1102 55.7648 99.1132 55.7201L99.3385 52.8626C99.3385 52.8626 100.267 54.0518 100.474 56.3007C102.199 53.9337 102.044 50.9792 102.041 50.9459L101.923 49.1148C101.923 49.1148 104.97 51.6446 103.609 55.8821C106.692 52.9822 106.349 49.413 106.329 49.2359L106.22 48.2836L107.127 48.5902C109.079 49.2495 110.179 50.6863 110.769 51.8134C112.718 45.694 109.776 40.9168 109.744 40.8661L109.206 40.019C111.311 39.2492 113.879 41.5557 113.879 41.5557C114.637 33.0813 110.347 29.3654 110.302 29.3283ZM66.5944 38.7851C66.4485 38.7503 66.3018 38.692 66.1679 38.608C66.0348 38.524 65.9176 38.4112 65.8336 38.281C65.665 38.0161 65.6499 37.7087 65.7338 37.4627C65.7875 37.5831 65.8427 37.6928 65.913 37.7837C65.9826 37.8737 66.0605 37.9457 66.1437 37.9956C66.3093 38.0955 66.4901 38.1228 66.6844 38.1167C66.7328 38.116 66.7827 38.1107 66.8311 38.1054L66.9045 38.0955C66.9158 38.0933 66.9423 38.091 66.9423 38.0902C66.9461 38.0872 66.9468 38.0872 66.9536 38.0842C66.9952 38.0653 67.089 38.0244 67.1752 37.9714C67.3537 37.8669 67.5465 37.7352 67.7379 37.602C68.1221 37.334 68.5161 37.0547 68.9275 36.7905C69.3396 36.5278 69.7654 36.2735 70.2456 36.0684C70.0066 36.5339 69.6973 36.9321 69.36 37.3037C69.2708 37.3999 69.1793 37.4945 69.0855 37.5868C69.0727 37.6368 69.0636 37.6853 69.0606 37.7307C69.0069 38.6057 69.0969 38.8025 68.5251 39.399C67.9542 39.9948 67.3227 40.0008 67.0194 40.5368C66.9484 40.3899 66.6118 39.9562 66.7336 38.8124C66.6882 38.8048 66.6421 38.7965 66.5944 38.7851ZM74.6651 42.0727C74.6129 42.3861 74.4995 42.6911 74.3452 42.972C74.1902 43.2536 73.9928 43.5094 73.7705 43.7357C73.7425 43.7645 73.7145 43.7925 73.685 43.8198L73.6071 43.8924L73.5693 43.9288L73.5436 43.9568L73.4846 44.0196C73.4052 44.1074 73.3281 44.1998 73.2577 44.2997C72.9681 44.6979 72.7284 45.171 72.5045 45.6713C72.2776 46.174 72.0712 46.7008 71.8186 47.2557C71.6605 46.6879 71.6568 46.1028 71.7407 45.5252C71.6386 45.417 71.5388 45.3125 71.4359 45.2156C71.2355 45.0226 71.0329 44.8606 70.8158 44.7259C70.3855 44.4556 69.8917 44.2664 69.3729 44.0681C69.2436 44.0173 69.1127 43.9696 68.9804 43.9212L68.7785 43.844C68.7021 43.8152 68.6265 43.7842 68.5516 43.7486C68.2544 43.6101 67.9723 43.4254 67.7349 43.1937C67.2607 42.735 66.9521 42.0886 67.021 41.4641C67.3613 41.9728 67.7696 42.324 68.2113 42.5715C68.4336 42.6949 68.6643 42.7926 68.9048 42.8698L69.0863 42.9243L69.2973 42.9856C69.4394 43.0302 69.5824 43.0802 69.7245 43.1309C70.0081 43.2399 70.291 43.3656 70.5632 43.5268C70.8355 43.6881 71.1024 43.8834 71.3263 44.1271C71.5516 44.3686 71.7309 44.6509 71.8466 44.9446C71.8496 44.9537 71.8519 44.962 71.8557 44.9704C71.9767 44.5313 72.165 44.0998 72.4516 43.7062C72.5499 43.5745 72.6588 43.4466 72.779 43.3277L72.8751 43.2399L72.9265 43.1945L72.9704 43.1589L73.1322 43.0318C73.3356 42.872 73.527 42.6994 73.707 42.5125C74.0647 42.1363 74.3838 41.7063 74.6016 41.1408C74.7135 41.4353 74.7128 41.7608 74.6651 42.0727Z" fill="white"/>
<path d="M114.042 30.7771L116.417 31.6605L115.285 29.3926L114.37 27.5554C113.354 25.5176 112.16 23.9923 111.161 22.9356L112.744 22.8493L111.788 21.3944L111.012 20.2166C108.958 17.094 106.408 15.5665 104.363 14.8208L105.576 13.9367L108.486 11.8149L104.899 12.1313L101.994 12.3872C101.355 12.4439 100.803 12.4712 100.308 12.4712C98.5524 12.4712 97.6555 12.1336 95.8737 11.4614C95.4646 11.3077 95.0078 11.1359 94.4959 10.952C93.2095 10.4894 91.911 10.2222 90.6276 10.1541L91.4451 9.34414L89.5197 9.02092L87.9596 8.759C86.6051 8.53191 85.2734 8.41685 83.9983 8.41685C83.3034 8.41685 82.6711 8.45016 82.1017 8.5039L83.2663 7.42446L87.0075 3.95752L82.2355 5.75306L78.3711 7.20721C74.9286 8.50315 72.6107 10.1375 71.1096 11.5303C71.2427 8.27227 70.0281 8.17689 70.0281 8.17689C70.0281 8.17689 69.9775 8.66968 69.9155 9.26693C69.5646 11.4107 67.8842 13.26 66.7921 14.5589C65.4354 16.1728 64.0318 17.8412 64.3948 20.9872C64.5189 22.056 64.9908 23.0923 65.7621 23.9848C65.8211 24.0537 65.8793 24.1165 65.9361 24.1763C65.5088 24.6547 65.1791 25.2565 64.9507 25.9771C64.934 26.0309 64.8977 26.1474 64.8667 26.3087L64.6013 26.5994C61.9476 29.4986 61.9158 35.0139 61.9158 35.247C61.9158 35.9646 62.2017 36.7943 62.6373 37.9789C62.781 38.3665 62.9927 38.9433 63.026 39.1379C63.0139 39.7397 62.6048 40.564 62.2108 41.3626C61.8221 42.1468 61.4583 42.8894 61.3207 43.6479C61.1528 43.0741 60.8616 42.4807 60.5546 41.8592C60.1114 40.9637 59.6531 40.0364 59.6531 39.2741C59.6577 39.0826 59.9072 38.4013 60.091 37.904C60.4366 36.9646 60.7943 35.9942 60.7943 35.3114C60.7943 35.2538 60.7633 29.8097 58.307 26.9688L58.3063 26.9672C58.3063 26.9672 58.3002 26.9597 58.2858 26.9445C58.0068 26.6357 57.5576 26.2928 57.3851 26.186C57.3708 26.1331 57.3594 26.0982 57.3579 26.0929C57.0887 25.2451 56.6629 24.6062 56.0889 24.1831C57.2468 23.3436 58.037 22.0613 58.2511 20.6185C58.518 18.826 57.851 17.0108 56.4232 15.6376C54.5961 13.8799 54.5674 11.9148 54.5674 11.8353L54.5764 10.2131L53.4837 11.4107C53.4534 11.4432 53.0322 11.9148 52.7698 12.6544C51.3162 10.9315 48.1392 8.11255 41.9917 6.34047L39.4862 5.61832L41.395 7.39721C41.8782 7.84685 42.3411 8.35327 42.6889 8.79307C40.9556 8.39036 37.7529 8.01566 33.2774 9.02167L31.2968 9.46829L33.0377 10.1533C31.8239 10.1072 30.1382 10.2434 28.1697 10.9512C27.6494 11.1382 27.1798 11.3153 26.7653 11.4712C24.1593 12.453 23.0809 12.8595 18.5767 12.2774L17.2827 12.1094L17.9649 13.2221C17.9951 13.2706 18.4239 13.9579 19.1824 14.5657C16.8804 15.1592 13.2375 16.8359 10.7253 21.5662L9.82987 23.2528L11.5473 22.4209C11.6555 22.3694 11.908 22.2695 12.1954 22.2082C10.9544 23.3285 8.91027 25.5623 7.47264 29.1087L6.86083 30.6181L8.32342 29.9043C8.59794 29.7696 9.24453 29.5084 9.89944 29.3729C8.40282 31.2555 5.92081 35.6285 6.94402 43.1241L7.11115 44.3527L7.99672 43.4852C8.61533 42.8803 9.67257 42.0439 10.6081 41.623C9.64308 43.7872 8.16839 48.6008 10.6557 54.2955L11.4157 56.0373L11.8347 54.1835C11.84 54.1562 12.4079 51.7475 14.5428 50.5545C14.5428 50.5545 14.4536 57.9698 23.3236 60.8017C24.272 62.7418 25.8707 65.0763 28.5637 67.2723L30.5995 68.9331L29.5257 66.5335C29.4243 66.3049 29.3147 66.0339 29.2111 65.7402C30.2902 67.5085 31.991 69.6681 34.5396 71.4349L36.3712 72.7036L35.4645 70.6673C35.3639 70.4402 35.2701 70.2048 35.1862 69.9747C37.1978 71.9966 41.4457 75.0979 48.8788 75.6051L52.9263 75.8806L49.1473 74.4007C48.9114 74.3084 43.3605 72.07 43.2259 66.4555C43.1578 63.6131 44.7452 61.9144 48.2201 61.1105C52.0301 60.2294 52.3674 56.5695 52.0127 54.7573L51.9144 54.2554L51.404 54.2524C51.3949 54.2524 50.4186 54.2448 49.5852 54.0177C48.4342 53.7043 47.8133 53.0367 47.8375 52.1389C47.8617 51.2237 48.5642 50.304 49.3697 50.1299C50.4549 49.8967 51.2164 50.3941 51.7685 51.6961C52.1262 52.5386 52.977 53.5438 55.006 53.5438L55.0226 53.5431C55.1406 53.54 57.9334 53.459 60.1288 52.7028L60.1228 52.6854C60.4608 52.5476 60.8972 52.3266 61.2957 51.9905C61.3018 51.986 61.3055 51.9814 61.3108 51.9769C61.3683 52.0526 61.4303 52.126 61.5014 52.1941C61.8901 52.5696 62.5972 52.7664 63.1304 52.8663L64.329 53.1343C66.1206 53.5332 67.9053 53.6006 68.1035 53.6067H68.111H68.1194H68.1466H68.1557H68.1647C70.5787 53.6029 71.5119 52.2502 71.8545 51.444C72.3695 50.2298 72.9571 50.2298 73.1779 50.2298C73.2853 50.2298 73.401 50.2427 73.5182 50.2677C74.0378 50.3797 74.524 51.0428 74.5414 51.659C74.5611 52.394 73.8638 52.7392 73.2762 52.8989C72.858 53.0124 72.3907 53.0639 72.0715 53.0874L71.375 53.1381L70.5152 53.2009L70.4509 54.0616L70.3987 54.7588C70.1612 57.9275 71.7826 60.3051 74.6292 60.9637C78.6116 61.8842 79.0752 63.9121 79.0358 65.5767C78.9663 68.4895 77.2549 70.3994 75.8308 71.4894L73.1333 73.5537L69.8035 76.1031L73.9243 75.3326L77.2624 74.7088C81.7598 73.8686 84.834 72.0268 86.773 70.4168L86.3541 72.9753L88.4655 71.0852L90.1754 69.5538C90.9778 68.8355 91.672 68.0868 92.2679 67.3488L91.7786 69.6719L94.1934 67.1686L96.149 65.1422C97.4694 63.7728 98.4291 62.3875 99.1256 61.1249L99.1362 61.2445L100.698 59.1008L100.702 59.094L99.7699 62.0023L102.589 59.3483L104.874 57.1985C107.038 55.1637 107.801 52.8096 108.058 51.1715C108.588 51.6453 108.952 52.1941 109.189 52.6498L110.089 54.372L111.2 56.4991L111.928 54.2122L112.517 52.3607C113.759 48.4623 113.241 45.0407 112.535 42.7683C112.598 42.8183 112.653 42.8637 112.696 42.9038L113.897 43.984L115.385 45.3201L115.561 43.3277L115.705 41.7138C116.172 36.4627 114.83 32.805 113.544 30.5916L114.042 30.7771ZM59.238 49.896C58.9468 49.6575 57.9576 50.5545 58.0302 50.8649C58.1142 51.2207 58.3055 51.5598 58.5248 51.855C56.8399 52.2312 55.1255 52.2925 54.9954 52.2963C53.9041 52.2948 53.2235 51.939 52.9142 51.2093C51.86 48.7234 50.076 48.7015 49.1057 48.9111C47.7354 49.2056 46.629 50.609 46.5904 52.1063C46.5504 53.5923 47.5471 54.7573 49.2577 55.2228C49.8249 55.3772 50.4261 55.4461 50.8466 55.4771C50.929 56.5808 50.8156 59.2302 47.9388 59.8956C43.9012 60.8297 41.8949 63.0469 41.9781 66.4858C42.0673 70.1814 44.1659 72.5863 45.9968 73.9874C37.9397 72.481 34.8239 67.616 34.7907 67.5622L34.2212 66.6364C34.2212 66.6364 33.4166 67.7704 33.6412 69.1375C30.0535 65.9257 28.8095 62.0499 28.7966 62.006L28.293 60.3816C28.293 60.3816 27.0141 61.8849 27.6078 64.7039C23.6035 60.5526 23.2064 56.3666 23.2019 56.3204L22.9705 53.3879C22.9705 53.3879 22.0176 54.6081 21.8058 56.9161C20.037 54.487 20.195 51.4546 20.1973 51.4198L20.3183 49.541C20.3183 49.541 17.192 52.1374 18.588 56.4869C15.4239 53.5105 15.7763 49.8468 15.7959 49.6651L15.9079 48.6886L14.9777 49.0027C12.9744 49.6795 11.8445 51.1541 11.2395 52.3107C9.23999 46.0301 12.2597 41.1264 12.2922 41.075L12.8443 40.206C10.6837 39.4157 8.0489 41.7827 8.0489 41.7827C7.27526 33.0881 11.6789 29.273 11.7243 29.2359L12.6136 28.4986C10.9174 27.6182 9.23016 28.2458 9.23016 28.2458C11.2252 24.2437 13.9386 22.3966 13.9673 22.3777L14.6464 21.9281C14.6464 21.9281 14.0891 20.9887 12.5645 20.9054C16.0689 15.5786 21.1184 15.487 21.3453 15.4862L21.4141 14.2418C20.9127 14.1857 20.4703 13.964 20.1066 13.699C23.5755 14.0048 24.8278 13.5332 27.2077 12.637C27.6184 12.4826 28.082 12.3069 28.5932 12.123C32.134 10.8505 34.6659 11.6325 34.6886 11.64L35.7148 11.9761C35.7889 10.7529 34.9827 9.95578 34.9827 9.95578C40.5162 9.02697 43.6335 10.3782 43.6653 10.3926L44.547 10.7937C44.9002 9.23135 43.8626 8.27 43.8626 8.27C50.6568 10.8271 52.6813 14.6619 52.7017 14.702L53.8663 14.2811C53.8459 14.1903 53.8308 14.0995 53.8232 14.0116C54.1476 14.7921 54.6816 15.6883 55.5618 16.5354C56.7106 17.6413 57.2286 19.0258 57.0191 20.4338C56.9027 21.2218 56.5608 21.947 56.0557 22.5329C56.008 22.5866 55.9611 22.6381 55.9158 22.6858C55.8999 22.7025 55.8847 22.7184 55.8681 22.7342C55.8174 22.7857 55.7683 22.8342 55.7176 22.8788C55.7101 22.8864 55.701 22.8947 55.6919 22.9015C55.0589 23.4647 54.4917 23.5669 54.2263 23.5813C54.1718 23.5798 54.1181 23.5775 54.0637 23.5783C52.1322 23.5896 50.0193 24.8152 49.2101 25.3345C48.7215 24.769 47.628 23.5329 46.6827 22.7017C45.8092 21.9319 43.8369 21.0454 42.3751 21.5859C41.7777 21.8062 41.0237 22.3618 40.8255 23.7524C40.4429 26.4313 41.9092 29.2904 42.456 30.2442C42.4001 30.2994 42.3373 30.3638 42.2715 30.4365L42.2065 30.3653C42.1807 30.338 41.6877 29.815 40.793 29.8619C41.1046 29.7749 41.2513 29.7809 41.246 29.7794L41.8775 29.8498C40.5782 27.3616 38.4902 27.239 38.4902 27.239C39.7789 27.5917 40.4028 28.4433 40.6788 28.9816C40.427 29.0436 40.1003 29.1504 39.6972 29.332C38.9402 29.6734 38.1409 29.2533 38.1356 29.2495L36.7857 28.3389C36.7857 28.3389 37.3619 31.042 40.4489 30.8142C40.8293 30.7862 41.0895 30.7355 41.2748 30.7998C40.6047 32.0337 41.0154 33.1835 41.0343 33.2365L41.5788 34.7088L41.879 33.1684C42.2049 31.4955 43.2705 30.6969 43.2796 30.69L43.6184 30.4471L43.3938 30.0951C43.3733 30.0618 41.2853 26.7561 41.696 23.8765C41.8079 23.0938 42.1293 22.6139 42.6799 22.411C43.7424 22.0189 45.3774 22.7252 46.1019 23.3625C47.2839 24.4034 48.7768 26.183 48.7919 26.2004L49.0429 26.5002L48.3464 26.6879C48.2012 26.7265 48.0719 26.7379 47.96 26.7114C47.8541 26.6864 47.7551 26.6311 47.6711 26.5449C47.4374 26.1989 47.1803 25.8689 46.8982 25.5608C46.6056 25.2383 46.2841 24.9401 45.937 24.6751C45.5884 24.4132 45.2133 24.1778 44.8034 24.0158C44.6007 23.9333 44.3897 23.8659 44.1742 23.8296C43.9594 23.7917 43.7371 23.7819 43.5276 23.8197C43.9451 23.906 44.3005 24.1089 44.6287 24.339C44.9539 24.5775 45.2541 24.8454 45.5302 25.1354C45.8085 25.4245 46.0641 25.7349 46.3068 26.0543C46.5481 26.3753 46.7719 26.7084 46.9814 27.0505L46.9943 27.0709L47.0207 27.102C47.2038 27.3215 47.4669 27.4933 47.7581 27.5615C47.7906 27.569 47.8231 27.5751 47.8556 27.5811C47.8496 27.597 47.8443 27.6137 47.8375 27.6296C47.7543 27.8325 47.6515 28.0255 47.5373 28.2019C47.42 28.3767 47.2877 28.5342 47.1372 28.6591C47.0616 28.7219 46.9807 28.7749 46.8982 28.8218C46.8559 28.8445 46.8128 28.865 46.7682 28.8839L46.6048 28.9452C46.173 29.111 45.7049 29.2079 45.2156 29.3737C44.7255 29.541 44.2771 29.8233 43.9368 30.1859C44.3913 29.9755 44.8435 29.8271 45.3116 29.7839C45.779 29.7347 46.2864 29.7151 46.7939 29.5992L46.9822 29.5546C47.054 29.5349 47.1259 29.5122 47.1954 29.4849C47.3338 29.432 47.4662 29.36 47.5887 29.2783C47.8345 29.1148 48.0387 28.9074 48.2073 28.6856C48.379 28.4638 48.5128 28.2246 48.6278 27.9793C48.6852 27.8567 48.7352 27.7318 48.779 27.6046C48.8244 27.4729 48.8615 27.3563 48.8978 27.2027L49.0649 26.5055L49.3863 26.2769C49.4211 26.2527 52.8174 23.8629 54.9909 24.5919C55.7229 24.8371 56.2228 25.4147 56.5245 26.3639C56.526 26.3707 56.7499 27.0747 56.3241 27.5789C56.0231 27.9354 55.6806 28.186 55.3493 28.4282C55.2019 28.5357 55.0529 28.6439 54.9114 28.7605L55.2956 27.8529L54.0834 28.6508C54.0024 28.703 53.2885 29.2079 52.9089 30.6681C52.7395 31.3191 52.2888 31.9057 51.7639 32.3554C51.8154 32.0533 51.8169 31.7248 51.7223 31.3933L51.5734 30.8626L51.0894 31.1268C50.979 31.1874 48.5544 32.5757 47.4049 38.3975C47.3406 38.0319 47.3316 37.5868 47.4412 37.0713L47.653 36.085L46.7871 36.6005C46.725 36.6376 45.2587 37.5452 44.4752 41.0848C43.7288 44.4586 44.0941 45.501 44.9774 48.0187L45.0946 48.3517C45.8773 50.5909 45.0023 52.0821 44.4707 52.7255C44.1009 50.086 41.7104 49.2155 41.6052 49.1784L40.8777 48.9225L41.0282 49.6795C41.9622 54.3947 39.217 56.4377 37.9034 57.1281C38.3458 51.9701 36.9793 49.7317 34.1978 47.3049C31.5267 44.9741 31.5622 39.1159 31.5637 39.0569L31.5683 38.6193L31.1319 38.611C31.0707 38.6103 29.63 38.5944 27.8468 39.4172C26.4969 40.0409 24.7272 41.2642 23.3509 43.6472C23.4091 42.5427 23.6352 41.2998 24.2508 40.6836L24.7038 40.2302L24.1185 39.9705C24.033 39.9327 22.131 39.1167 20.0566 40.6685C19.7073 39.829 19.1907 37.9593 20.2964 35.8443L20.6269 35.2137L19.916 35.2001C19.8449 35.1986 18.5449 35.188 17.3878 36.1403C17.8832 34.5468 19.4123 31.9988 24.0829 30.1427L24.97 29.79L24.126 29.3441C24.0133 29.2843 21.5601 28.0194 17.7047 28.5024C18.4965 27.7553 19.8464 26.7803 21.6425 26.5759L22.1946 26.5131L22.0063 25.99C21.979 25.9151 21.3801 24.3292 18.7801 23.4867C19.1575 23.3133 19.6142 23.1574 20.0786 23.1301L20.4922 23.1052V22.6896C20.4922 22.6222 20.4627 21.165 18.07 20.8971C18.5154 20.3225 19.2959 19.5111 20.3191 19.2242L20.7902 19.0917C20.7902 19.0917 20.7826 18.9857 20.7486 18.9199C19.9175 17.3083 17.7244 17.5338 17.7244 17.5338C18.7007 17.8344 19.2406 18.2689 19.5212 18.58C17.8779 19.318 16.9265 21.003 16.8842 21.081L16.5204 21.735H17.2676C18.5222 21.735 19.1544 22.0416 19.4327 22.3353C18.3226 22.5844 17.4143 23.2573 17.3712 23.2906L16.5839 23.8811L17.5474 24.0741C19.5197 24.4685 20.462 25.2837 20.8802 25.8068C17.9104 26.4351 16.2482 28.787 16.1733 28.8937L15.5396 29.8067L16.6263 29.575C19.41 28.9816 21.579 29.3941 22.7512 29.7537C16.0039 32.8626 16.264 37.4824 16.2799 37.686L16.3926 39.1962L17.1065 37.8616C17.6835 36.7822 18.5593 36.3552 19.1771 36.1872C18.0564 39.1159 19.466 41.483 19.5318 41.5905L19.8093 42.0454L20.2026 41.6866C21.3952 40.5988 22.5387 40.5383 23.1951 40.6306C22.184 42.3648 22.4955 45.3753 22.5114 45.5176L22.6997 47.2496L23.3562 45.6365C25.4646 40.4535 29.3873 39.639 30.6888 39.5126C30.7341 41.0258 31.0835 45.7538 33.6185 47.9664C36.3614 50.3585 37.5578 52.4371 36.9535 57.7844L36.8764 58.4679L37.529 58.2522C37.585 58.234 42.7358 56.4506 42.0318 50.3933C42.6647 50.8248 43.5057 51.6559 43.6237 53.0647C43.6403 53.2713 43.5745 53.4363 43.5753 53.4363L43.2244 54.2296L44.0714 54.0442C44.4571 53.9602 44.8669 53.5847 44.9834 53.4719L45.0016 53.453C45.6134 52.7846 46.9262 50.9209 45.9249 48.0573L45.8077 47.7242C44.96 45.3064 44.6416 44.4011 45.3343 41.2725C45.6655 39.7767 46.117 38.8146 46.4959 38.2189C46.6093 39.4452 47.2393 40.1522 47.2733 40.1901L47.9025 40.8804L48.0341 39.9554C48.388 37.4703 48.9726 35.7118 49.5625 34.4855L50.9782 33.8777C52.1005 33.3962 53.3959 32.2842 53.7604 30.8869C53.827 30.6318 53.9049 30.4145 53.9858 30.2313C54.0546 30.3835 54.1181 30.4796 54.1257 30.4902L54.7799 31.4576L54.9266 30.2994C54.9901 29.7968 55.2926 29.5546 55.8681 29.136C56.2243 28.8763 56.6281 28.5811 56.9972 28.1436C57.1227 27.996 57.2142 27.8408 57.2831 27.6864C59.1344 29.7082 59.5503 33.8269 59.5503 35.3061C59.5503 35.7663 59.2032 36.7095 58.9241 37.4672C58.5959 38.3597 58.4091 38.8835 58.4091 39.2681C58.4091 40.3233 58.9339 41.3823 59.4399 42.408C59.79 43.115 60.1205 43.7842 60.2029 44.3156C60.3943 45.5623 60.5947 49.6295 60.634 50.4501C59.7 50.5878 59.4066 50.0337 59.238 49.896ZM50.8065 32.5393C50.6719 32.9201 50.4587 33.2017 50.4556 33.2055L49.7463 34.1199C50.1267 33.3947 50.5018 32.8853 50.8065 32.5393ZM114.707 41.6253L114.564 43.2384L113.36 42.1567C112.953 41.7933 111.756 40.9168 110.611 40.7124C111.232 41.8728 113.35 46.4449 111.563 52.0564L110.973 53.9087L110.075 52.1858C109.594 51.2691 108.71 50.0776 107.176 49.4607C107.208 50.491 107.059 53.7686 104.186 56.4695L101.903 58.6193L102.861 55.6316C103.349 54.1093 103.197 52.8444 102.846 51.8815C102.755 53.0503 102.406 55.0517 101.15 56.7753L99.8864 58.5118L99.7374 56.8866C99.3525 58.4596 98.2877 61.4815 95.426 64.4473L93.4704 66.4745L94.0504 63.7168C94.1699 63.1528 94.2017 62.6555 94.1813 62.2256C93.6352 63.5336 92.2309 66.3677 89.5061 68.8082L87.7955 70.3396L88.166 68.0732C88.1955 67.8998 88.1993 67.7295 88.188 67.5683C87.1633 68.8672 83.7851 72.472 77.0749 73.7255L73.7383 74.3493L76.4343 72.285C78.0315 71.0625 79.9517 68.9104 80.0311 65.6009C80.1021 62.6472 78.4081 60.8115 74.8515 59.9887C72.4844 59.4414 71.192 57.5142 71.3932 54.8337L71.4454 54.1365L72.1419 54.0858C72.5049 54.0593 73.0418 53.9995 73.5371 53.8648C74.8379 53.5105 75.5669 52.6968 75.5389 51.6325C75.5094 50.55 74.6957 49.4986 73.7254 49.2904C73.5394 49.2503 73.3541 49.2298 73.1757 49.2298C72.1993 49.2298 71.4446 49.8437 70.9311 51.0541C70.6316 51.7612 69.9079 52.6044 68.1602 52.6074L68.133 52.6067C67.9454 52.6006 66.2461 52.5371 64.5453 52.1578L63.3285 51.8861C63.3285 51.8861 62.4535 51.7248 62.1941 51.475C62.0202 51.3062 61.9196 51.0428 61.8682 50.8717C61.8826 50.7514 61.8848 50.6401 61.8818 50.5447H61.8826C61.8818 50.5084 61.8727 50.3169 61.8584 50.0216L61.8614 49.9633C61.9151 48.8506 62.1019 45.1255 62.2894 43.9023C62.3877 43.2596 62.7371 42.5541 63.1077 41.807C63.5592 40.8918 64.0273 39.9463 64.0273 39.1068C64.0273 38.8585 63.8072 38.2628 63.5766 37.6315C63.1894 36.5816 62.9171 35.7958 62.9171 35.2463C62.9171 35.1933 62.9443 29.8899 65.3386 27.2746L65.812 26.756C65.834 26.504 65.8892 26.3231 65.9035 26.2792C66.2212 25.2762 66.7672 24.5752 67.5272 24.1945C67.3397 24.0817 67.143 23.9416 66.9449 23.7645L66.9192 23.741C66.8549 23.6827 66.7952 23.6252 66.7354 23.5639L66.6802 23.5071C66.6265 23.4511 66.5721 23.3913 66.5184 23.3292C65.9134 22.6298 65.4929 21.7842 65.3878 20.8713C64.8153 15.9018 69.2575 15.297 70.2089 10.279C70.2157 10.2949 70.2217 10.3138 70.224 10.3426C70.1612 10.9626 70.0954 11.6113 70.0682 11.9118C70.0191 12.45 70.1567 14.0654 70.1567 14.0654C71.1081 12.7793 73.5954 10.0724 78.7235 8.14207L82.5879 6.68717L79.5592 9.49478C79.5478 9.50614 79.3285 9.7249 79.1916 10.1057C79.8511 9.8763 81.4883 9.41454 83.9991 9.41454C85.2182 9.41454 86.4955 9.52506 87.7947 9.74383L89.3549 10.0057L88.2296 11.1192C88.2243 11.1245 88.1577 11.1949 88.0768 11.3191C88.4595 11.2388 89.1159 11.1359 89.975 11.1359C91.3544 11.1359 92.7633 11.3902 94.1601 11.8921C94.6675 12.0745 95.1213 12.2456 95.5228 12.397C97.3598 13.0896 98.3724 13.4712 100.311 13.4712C100.836 13.4712 101.416 13.4424 102.084 13.3834L104.99 13.1283L102.632 14.8466C102.425 14.998 102.214 15.1252 101.998 15.2273C103.777 15.5188 107.451 16.6202 110.179 20.7669L110.955 21.9447L109.547 22.0219C109.265 22.0371 109.032 22.0916 108.843 22.1627C109.591 22.7395 111.797 24.6327 113.476 28.002L114.393 29.8392L112.47 29.1239C112.47 29.1239 112.013 28.9634 111.381 28.9634C111.291 28.9634 111.203 28.9664 111.115 28.9732C112.107 30.002 115.383 34.0207 114.707 41.6253Z" fill="white"/>
<path d="M5.0383 75.4619L5.80286 76.1023L4.43027 77.7457L0.832031 74.7314L2.20538 73.088L2.96995 73.7284L6.52735 69.4742L5.76354 68.8331L7.13613 67.1904L10.3857 69.9125C12.0381 71.297 12.5365 73.6277 11.3704 75.0236C9.86469 76.8244 7.78121 76.5716 6.35417 75.3756L5.62288 74.7639L5.0383 75.4619ZM7.09 73.0078L7.52787 73.3757C8.09052 73.8465 8.76585 73.8382 9.20901 73.3098C9.64159 72.792 9.46765 72.1304 8.93979 71.6876L8.50192 71.3205L7.09 73.0078Z" fill="white"/>
<path d="M15.1043 82.6379L15.6897 82.9732L14.6718 84.7567L10.8784 82.5857L11.9409 80.7258L12.8061 81.2208L15.5566 76.4057L14.6914 75.9107L15.754 74.0508L19.7379 76.3308C21.7616 77.489 22.4627 79.6319 21.5242 81.2753C20.7959 82.5486 19.5413 83.0315 18.3887 82.8612L18.8009 84.6522L19.5254 85.067L18.4629 86.9269L16.0693 85.5575L15.7441 81.5168L15.1043 82.6379ZM16.6176 79.9877L17.3557 80.4101C17.9925 80.7742 18.7676 80.5418 19.1238 79.9173C19.4361 79.3693 19.1881 78.6524 18.5513 78.2883L17.8261 77.8735L16.6176 79.9877Z" fill="white"/>
<path d="M22.2861 88.6158L23.0946 86.6318L24.0172 87.0088L26.1082 81.8712L25.1848 81.495L25.9925 79.511L30.3372 81.2831L29.5287 83.2663L28.6054 82.8901L26.5151 88.0269L27.4385 88.4039L26.6308 90.3872L22.2861 88.6158Z" fill="white"/>
<path d="M38.169 83.7303C40.7335 84.4139 42.2656 87.0391 41.5305 89.8035C40.8408 92.3984 38.2083 93.9147 35.6439 93.2319L30.7979 91.9412L31.3484 89.8709L32.3119 90.1275L33.7374 84.7674L32.7739 84.5108L33.323 82.4404L38.169 83.7303ZM34.9557 90.6809L36.0462 90.9715C37.3077 91.3076 38.47 90.5847 38.8633 89.1094C39.2815 87.5356 38.6001 86.2147 37.2683 85.8604L36.3049 85.6046L34.9557 90.6809Z" fill="white"/>
<path d="M53.4767 86.4471L53.066 89.6642L50.5931 89.3485L50.7141 88.4023L49.1736 88.2055L49.0065 89.5158L51.2752 89.805L50.975 92.1637L48.707 91.8738L48.5104 93.4173L50.0516 93.6141L50.1945 92.493L52.6667 92.8087L52.2341 96.2007L44.5552 95.2204L44.8259 93.0948L45.8151 93.2212L46.5154 87.7188L45.527 87.5924L45.7962 85.4668L53.4767 86.4471Z" fill="white"/>
<path d="M72.4027 96.0183L72.3558 95.4188C71.7652 95.9502 70.6762 96.3279 69.7414 96.399C66.9191 96.6155 64.3373 94.5611 64.1255 91.7959C63.9077 88.9573 66.1439 86.4615 68.9648 86.245C70.3532 86.1383 71.1466 86.6954 71.7077 86.9324L71.6532 86.2155L73.7874 86.052L74.0415 89.3736L71.3228 89.5818C70.5983 88.9459 69.9214 88.762 69.1621 88.8195C68.3877 88.8793 66.724 89.6249 66.8737 91.5847C66.9819 93.004 68.1707 93.9283 69.5448 93.8231C70.5083 93.7489 71.3152 93.1433 71.5572 92.6535L68.9254 92.8549L68.7621 90.7187L74.1118 90.3092L74.5368 95.8548L72.4027 96.0183Z" fill="white"/>
<path d="M82.1525 92.3833L82.8119 92.2418L83.243 94.25L78.9725 95.1682L78.5232 93.0737L79.498 92.864L78.3334 87.4411L77.3594 87.6507L76.9102 85.5554L81.3962 84.5911C83.6756 84.1005 85.6267 85.2262 86.0237 87.0777C86.3315 88.5129 85.719 89.7097 84.7479 90.3539L86.2498 91.4114L87.0674 91.2358L87.5166 93.3303L84.8228 93.9102L81.884 91.12L82.1525 92.3833ZM81.5127 89.3994L82.3438 89.22C83.0607 89.0655 83.482 88.3752 83.33 87.6719C83.1984 87.055 82.5344 86.6871 81.8182 86.8415L81.0015 87.0172L81.5127 89.3994Z" fill="white"/>
<path d="M96.3359 90.5997C93.686 91.5921 90.6088 90.2689 89.628 87.6437C88.6675 85.0738 90.1218 82.0535 92.7717 81.0611C95.4216 80.0687 98.4988 81.3919 99.46 83.9626C100.44 86.5877 98.9866 89.6081 96.3359 90.5997ZM93.6762 83.4804C92.3852 83.9633 91.7273 85.3857 92.2098 86.6771C92.7082 88.0101 94.142 88.6634 95.4322 88.1812C96.7231 87.6975 97.3765 86.2622 96.8789 84.9292C96.3957 83.6378 94.9663 82.9974 93.6762 83.4804Z" fill="white"/>
<path d="M103.626 76.1931L104.694 78.0492L104.008 78.4443L106.065 82.0172C106.438 82.666 107.186 82.8779 107.758 82.5479C108.304 82.233 108.47 81.4934 108.096 80.8447L106.04 77.2718L105.355 77.6677L104.286 75.8116L108.032 73.6497L109.102 75.5058L108.238 76.0038L110.551 80.0219C111.472 81.6236 110.777 83.6175 108.998 84.6432C107.194 85.6833 104.964 85.3949 104.042 83.7931L101.721 79.763L100.858 80.2611L99.7891 78.405L103.626 76.1931Z" fill="white"/>
<path d="M118.036 75.5005L118.795 74.8525L120.184 76.4823L116.615 79.5299L115.225 77.9001L115.984 77.2529L112.388 73.032L111.629 73.68L110.24 72.0502L113.464 69.2979C115.104 67.8982 117.483 67.7953 118.663 69.1798C120.186 70.9655 119.589 72.9798 118.172 74.1887L117.447 74.8079L118.036 75.5005ZM115.963 73.0661L116.398 72.6952C116.956 72.219 117.061 71.5506 116.614 71.026C116.175 70.5128 115.495 70.5726 114.971 71.0207L114.535 71.3916L115.963 73.0661Z" fill="white"/>
</svg>
