<svg width="22" height="22" viewBox="0 0 22 22" fill="none" xmlns="http://www.w3.org/2000/svg">
<g clip-path="url(#clip0)">
<path d="M16.7261 14.5533C16.0074 13.8437 15.1101 13.8437 14.3959 14.5533C13.8511 15.0935 13.3063 15.6337 12.7707 16.1831C12.6242 16.3342 12.5006 16.3662 12.3221 16.2655C11.9696 16.0732 11.5942 15.9176 11.2554 15.707C9.676 14.7136 8.35296 13.4363 7.18099 11.9988C6.59959 11.2846 6.08227 10.5201 5.72061 9.65946C5.64736 9.48549 5.6611 9.37104 5.80301 9.22913C6.3478 8.70266 6.87884 8.16245 7.41447 7.62225C8.16068 6.87146 8.16068 5.99248 7.40989 5.23711C6.98414 4.80678 6.55838 4.38561 6.13263 3.95528C5.69314 3.51579 5.25823 3.07172 4.81417 2.63681C4.09542 1.93638 3.19814 1.93638 2.48397 2.64139C1.93461 3.1816 1.40814 3.73553 0.849626 4.26658C0.332313 4.75643 0.0713676 5.35614 0.0164317 6.05658C-0.0705502 7.1965 0.208707 8.27232 0.602415 9.32068C1.40814 11.4907 2.63504 13.418 4.12289 15.1851C6.13263 17.5748 8.5315 19.4655 11.3378 20.8298C12.6013 21.4432 13.9106 21.9147 15.3344 21.9926C16.3141 22.0475 17.1656 21.8003 17.8477 21.0358C18.3147 20.5139 18.8411 20.0378 19.3356 19.5388C20.068 18.7971 20.0726 17.8998 19.3447 17.1674C18.4749 16.293 17.6005 15.4231 16.7261 14.5533Z" fill="#EC4040"/>
<path d="M15.8532 10.9047L17.5424 10.6163C17.2769 9.06433 16.5444 7.65889 15.432 6.54185C14.2554 5.36531 12.7676 4.62368 11.1287 4.39478L10.8906 6.09321C12.1587 6.27175 13.3124 6.844 14.2234 7.75502C15.0841 8.61569 15.6472 9.70525 15.8532 10.9047Z" fill="#EC4040"/>
<path d="M18.4915 3.56168C16.5413 1.61145 14.0738 0.379973 11.3499 0L11.1118 1.69844C13.4649 2.02805 15.5983 3.09472 17.283 4.77485C18.8807 6.37257 19.929 8.39146 20.309 10.6118L21.9983 10.3234C21.5542 7.75054 20.3411 5.41577 18.4915 3.56168Z" fill="#EC4040"/>
</g>
<defs>
<clipPath id="clip0">
<rect width="22" height="22" fill="white"/>
</clipPath>
</defs>
</svg>
