<svg width="40" height="40" viewBox="0 0 40 40" fill="none" xmlns="http://www.w3.org/2000/svg">
<rect x="0.5" y="0.5" width="39" height="39" stroke="white"/>
<path d="M28.7374 25.9179C28.7769 26.2196 28.685 26.4818 28.4623 26.7048L25.8477 29.3013C25.7298 29.4324 25.5758 29.5439 25.3858 29.6357C25.1957 29.7275 25.0091 29.7865 24.8256 29.8127C24.8125 29.8127 24.7731 29.8161 24.7076 29.8226C24.6421 29.8292 24.5569 29.8325 24.4521 29.8325C24.2031 29.8325 23.8 29.7899 23.243 29.7046C22.6861 29.6193 22.0045 29.4095 21.1986 29.0751C20.3925 28.7408 19.4784 28.239 18.4562 27.5702C17.434 26.9016 16.3462 25.9835 15.1929 24.8164C14.2756 23.9114 13.5155 23.046 12.9126 22.2197C12.3097 21.3935 11.8248 20.6297 11.4579 19.9281C11.0909 19.2264 10.8157 18.5905 10.6322 18.0199C10.4487 17.4495 10.3242 16.9577 10.2587 16.5446C10.1931 16.1315 10.1669 15.8069 10.18 15.571C10.1931 15.3349 10.1997 15.2038 10.1997 15.1775C10.2259 14.9939 10.2849 14.807 10.3766 14.6169C10.4684 14.4267 10.5798 14.2726 10.7108 14.1546L13.3254 11.5383C13.5089 11.3547 13.7186 11.2629 13.9544 11.2629C14.1247 11.2629 14.2756 11.3121 14.4066 11.4105C14.5376 11.5088 14.6491 11.6301 14.7407 11.7744L16.8442 15.7677C16.9621 15.9775 16.9949 16.2069 16.9425 16.4561C16.89 16.7053 16.7787 16.9151 16.6083 17.0856L15.6451 18.0495C15.6189 18.0757 15.596 18.1183 15.5763 18.1774C15.5566 18.2363 15.5467 18.2856 15.5467 18.3248C15.5992 18.6003 15.7171 18.915 15.9005 19.269C16.0579 19.5838 16.3003 19.9674 16.628 20.4198C16.9556 20.8723 17.4209 21.3935 18.0237 21.9837C18.6135 22.587 19.1377 23.0557 19.5964 23.3902C20.055 23.7245 20.4384 23.9705 20.7465 24.1278C21.0544 24.2853 21.2903 24.3804 21.4541 24.413L21.6998 24.4622C21.7259 24.4622 21.7687 24.4523 21.8276 24.4327C21.8865 24.413 21.9292 24.39 21.9554 24.3638L23.0759 23.2229C23.3119 23.0132 23.587 22.9082 23.9016 22.9082C24.1244 22.9082 24.3013 22.9475 24.4323 23.0263H24.452L28.2459 25.2687C28.5213 25.4393 28.685 25.6556 28.7374 25.9179Z" fill="white"/>
<path d="M19.8147 15.2717C21.0402 15.4775 22.1534 16.0575 23.0421 16.9462C23.9309 17.835 24.5062 18.9482 24.7167 20.1737C24.7681 20.4824 25.0347 20.6976 25.3388 20.6976C25.3762 20.6976 25.4089 20.6929 25.4464 20.6882C25.7925 20.6321 26.0217 20.3047 25.9656 19.9585C25.713 18.4758 25.0114 17.124 23.9402 16.0528C22.8691 14.9817 21.5173 14.2801 20.0345 14.0275C19.6884 13.9714 19.3657 14.2006 19.3048 14.542C19.244 14.8835 19.4686 15.2156 19.8147 15.2717Z" fill="white"/>
<path d="M29.9741 19.7762C29.5578 17.3346 28.4072 15.1128 26.6391 13.3447C24.871 11.5766 22.6492 10.4259 20.2076 10.0096C19.8661 9.94882 19.5434 10.1827 19.4826 10.5241C19.4264 10.8703 19.6556 11.193 20.0018 11.2538C22.1815 11.6234 24.1694 12.6571 25.7504 14.2334C27.3314 15.8144 28.3604 17.8023 28.7299 19.982C28.7814 20.2907 29.048 20.5059 29.352 20.5059C29.3895 20.5059 29.4222 20.5012 29.4596 20.4965C29.8011 20.4451 30.035 20.1177 29.9741 19.7762Z" fill="white"/>
</svg>
